# xmcd
#
# Track frame offsets:
#	150
#	15841
#	28966
#	48407
#	65081
#	81238
#	103438
#	117083
#	139778
#	156822
#	173435
#
# Disc length: 2508 seconds
#
# Revision: 1
# Processed by: cddbd v1.4PL0 Copyright (c) Steve Scherf et al.
# Submitted via: audiograbber 1.82.02
#
DISCID=8d09ca0b
DTITLE=John Coinman - 41 Crosses
DYEAR=1900
DGENRE=Blues
TTITLE0=Even Geronimo Surrendered
TTITLE1=All The Way From Memphis
TTITLE2=This Town
TTITLE3=41 Crosses
TTITLE4=Elvis In The Rain
TTITLE5=Tumbleweed Dreams
TTITLE6=Haunted By You
TTITLE7=Another You
TTITLE8=When We Get Home To Oracle
TTITLE9=I Know
TTITLE10=I Got Enough Tatoos
EXTD=
EXTT0=
EXTT1=
EXTT2=
EXTT3=
EXTT4=
EXTT5=
EXTT6=
EXTT7=
EXTT8=
EXTT9=
EXTT10=
PLAYORDER=
